HIERARCHY
ROOT Root
{
  OFFSET 0.0 0.0 0.0
  CHANNELS 6 Xposition Yposition Zposition Zrotation Yrotation Xrotation
  JOINT Hips
  {
    OFFSET 0.0 100.0 0.0
    CHANNELS 6 Xposition Yposition Zposition Zrotation Yrotation Xrotation
    JOINT Spine1
    {
      OFFSET 5.003913 -0.037094 -0.013727
      CHANNELS 3 Zrotation Yrotation Xrotation
      JOINT Spine2
      {
        OFFSET 7.125363 -1e-06 0.0
        CHANNELS 3 Zrotation Yrotation Xrotation
        JOINT Chest
        {
          OFFSET 7.594027 1e-06 0.0
          CHANNELS 3 Zrotation Yrotation Xrotation
          JOINT Neck1
          {
            OFFSET 26.313086 -0.460272 -0.181672
            CHANNELS 3 Zrotation Yrotation Xrotation
            JOINT Neck2
            {
              OFFSET 8.045911 0.0 0.0
              CHANNELS 3 Zrotation Yrotation Xrotation
              JOINT Head
              {
                OFFSET 6.432774 0.0 0.0
                CHANNELS 3 Zrotation Yrotation Xrotation
                JOINT HeadEnd
                {
                  OFFSET 16.169773 0.06451 0.00362
                  CHANNELS 3 Zrotation Yrotation Xrotation
                }
                JOINT Jaw
                {
                  OFFSET 0.108741 3.12938 0.002639
                  CHANNELS 3 Zrotation Yrotation Xrotation
                }
                JOINT LeftEye
                {
                  OFFSET 4.45173 8.166359 3.206392
                  CHANNELS 3 Zrotation Yrotation Xrotation
                }
                JOINT RightEye
                {
                  OFFSET 4.436895 8.135758 -3.222429
                  CHANNELS 3 Zrotation Yrotation Xrotation
                }
              }
            }
          }
          JOINT LeftShoulder
          {
            OFFSET 23.218927 5.195579 1.621656
            CHANNELS 3 Zrotation Yrotation Xrotation
            JOINT LeftArm
            {
              OFFSET 15.902118 2e-06 -2e-06
              CHANNELS 3 Zrotation Yrotation Xrotation
              JOINT LeftForeArm
              {
                OFFSET 28.739307 0.0 -1e-06
                CHANNELS 3 Zrotation Yrotation Xrotation
                JOINT LeftHand
                {
                  OFFSET 27.093981 -4e-06 0.0
                  CHANNELS 3 Zrotation Yrotation Xrotation
                  JOINT LeftHandThumb1
                  {
                    OFFSET 2.276781 3.380274 0.83384
                    CHANNELS 3 Zrotation Yrotation Xrotation
                    JOINT LeftHandThumb2
                    {
                      OFFSET 4.705309 -1e-06 -1e-06
                      CHANNELS 3 Zrotation Yrotation Xrotation
                      JOINT LeftHandThumb3
                      {
                        OFFSET 2.798515 0.0 3e-06
                        CHANNELS 3 Zrotation Yrotation Xrotation
                        JOINT LeftHandThumbEnd
                        {
                          OFFSET 3.180793 4e-06 -4e-06
                          CHANNELS 3 Zrotation Yrotation Xrotation
                        }
                      }
                    }
                  }
                  JOINT LeftHandIndex1
                  {
                    OFFSET 3.247786 2.352677 0.137192
                    CHANNELS 3 Zrotation Yrotation Xrotation
                    JOINT LeftHandIndex2
                    {
                      OFFSET 6.367095 1e-06 0.0
                      CHANNELS 3 Zrotation Yrotation Xrotation
                      JOINT LeftHandIndex3
                      {
                        OFFSET 3.662364 0.0 0.0
                        CHANNELS 3 Zrotation Yrotation Xrotation
                        JOINT LeftHandIndex4
                        {
                          OFFSET 2.329242 4e-06 -4e-06
                          CHANNELS 3 Zrotation Yrotation Xrotation
                          JOINT LeftHandIndexEnd
                          {
                            OFFSET 2.767823 1e-06 0.0
                            CHANNELS 3 Zrotation Yrotation Xrotation
                          }
                        }
                      }
                    }
                  }
                  JOINT LeftHandMiddle1
                  {
                    OFFSET 3.163612 0.945023 -0.406112
                    CHANNELS 3 Zrotation Yrotation Xrotation
                    JOINT LeftHandMiddle2
                    {
                      OFFSET 6.276789 3e-06 0.0
                      CHANNELS 3 Zrotation Yrotation Xrotation
                      JOINT LeftHandMiddle3
                      {
                        OFFSET 4.35652 -1e-06 4e-06
                        CHANNELS 3 Zrotation Yrotation Xrotation
                        JOINT LeftHandMiddle4
                        {
                          OFFSET 2.996877 0.0 8e-06
                          CHANNELS 3 Zrotation Yrotation Xrotation
                          JOINT LeftHandMiddleEnd
                          {
                            OFFSET 2.323256 3e-06 -4e-06
                            CHANNELS 3 Zrotation Yrotation Xrotation
                          }
                        }
                      }
                    }
                  }
                  JOINT LeftHandRing1
                  {
                    OFFSET 2.882606 -0.309162 0.107445
                    CHANNELS 3 Zrotation Yrotation Xrotation
                    JOINT LeftHandRing2
                    {
                      OFFSET 6.033198 0.0 4e-06
                      CHANNELS 3 Zrotation Yrotation Xrotation
                      JOINT LeftHandRing3
                      {
                        OFFSET 4.350578 3e-06 0.0
                        CHANNELS 3 Zrotation Yrotation Xrotation
                        JOINT LeftHandRing4
                        {
                          OFFSET 2.651321 2e-06 -7e-06
                          CHANNELS 3 Zrotation Yrotation Xrotation
                          JOINT LeftHandRingEnd
                          {
                            OFFSET 1.937663 1e-06 -4e-06
                            CHANNELS 3 Zrotation Yrotation Xrotation
                          }
                        }
                      }
                    }
                  }
                  JOINT LeftHandPinky1
                  {
                    OFFSET 2.865315 -1.525436 0.575687
                    CHANNELS 3 Zrotation Yrotation Xrotation
                    JOINT LeftHandPinky2
                    {
                      OFFSET 5.54936 1e-06 -8e-06
                      CHANNELS 3 Zrotation Yrotation Xrotation
                      JOINT LeftHandPinky3
                      {
                        OFFSET 3.070974 0.0 -4e-06
                        CHANNELS 3 Zrotation Yrotation Xrotation
                        JOINT LeftHandPinky4
                        {
                          OFFSET 1.549672 1e-06 0.0
                          CHANNELS 3 Zrotation Yrotation Xrotation
                          JOINT LeftHandPinkyEnd
                          {
                            OFFSET 1.952123 0.0 0.0
                            CHANNELS 3 Zrotation Yrotation Xrotation
                          }
                        }
                      }
                    }
                  }
                }
              }
            }
          }
          JOINT RightShoulder
          {
            OFFSET 23.161716 5.296122 -1.380114
            CHANNELS 3 Zrotation Yrotation Xrotation
            JOINT RightArm
            {
              OFFSET -16.027195 -2e-06 1.1e-05
              CHANNELS 3 Zrotation Yrotation Xrotation
              JOINT RightForeArm
              {
                OFFSET -28.736639 4e-06 2e-06
                CHANNELS 3 Zrotation Yrotation Xrotation
                JOINT RightHand
                {
                  OFFSET -27.133619 6e-06 0.0
                  CHANNELS 3 Zrotation Yrotation Xrotation
                  JOINT RightHandThumb1
                  {
                    OFFSET -2.274328 -3.351035 -0.83067
                    CHANNELS 3 Zrotation Yrotation Xrotation
                    JOINT RightHandThumb2
                    {
                      OFFSET -4.703594 -3e-06 2e-06
                      CHANNELS 3 Zrotation Yrotation Xrotation
                      JOINT RightHandThumb3
                      {
                        OFFSET -2.794935 -4e-06 -3e-06
                        CHANNELS 3 Zrotation Yrotation Xrotation
                        JOINT RightHandThumbEnd
                        {
                          OFFSET -3.183852 4e-06 1e-06
                          CHANNELS 3 Zrotation Yrotation Xrotation
                        }
                      }
                    }
                  }
                  JOINT RightHandIndex1
                  {
                    OFFSET -3.253496 -2.33755 -0.127667
                    CHANNELS 3 Zrotation Yrotation Xrotation
                    JOINT RightHandIndex2
                    {
                      OFFSET -6.344434 0.0 0.0
                      CHANNELS 3 Zrotation Yrotation Xrotation
                      JOINT RightHandIndex3
                      {
                        OFFSET -3.654871 0.0 -8e-06
                        CHANNELS 3 Zrotation Yrotation Xrotation
                        JOINT RightHandIndex4
                        {
                          OFFSET -2.327586 -1e-06 0.0
                          CHANNELS 3 Zrotation Yrotation Xrotation
                          JOINT RightHandIndexEnd
                          {
                            OFFSET -2.770001 3e-06 8e-06
                            CHANNELS 3 Zrotation Yrotation Xrotation
                          }
                        }
                      }
                    }
                  }
                  JOINT RightHandMiddle1
                  {
                    OFFSET -3.168223 -0.944764 0.411762
                    CHANNELS 3 Zrotation Yrotation Xrotation
                    JOINT RightHandMiddle2
                    {
                      OFFSET -6.266691 -1e-06 -4e-06
                      CHANNELS 3 Zrotation Yrotation Xrotation
                      JOINT RightHandMiddle3
                      {
                        OFFSET -4.348901 0.0 0.0
                        CHANNELS 3 Zrotation Yrotation Xrotation
                        JOINT RightHandMiddle4
                        {
                          OFFSET -3.00024 2e-06 -4e-06
                          CHANNELS 3 Zrotation Yrotation Xrotation
                          JOINT RightHandMiddleEnd
                          {
                            OFFSET -2.321477 -4e-06 -4e-06
                            CHANNELS 3 Zrotation Yrotation Xrotation
                          }
                        }
                      }
                    }
                  }
                  JOINT RightHandRing1
                  {
                    OFFSET -2.885654 0.293261 -0.119232
                    CHANNELS 3 Zrotation Yrotation Xrotation
                    JOINT RightHandRing2
                    {
                      OFFSET -6.032835 -1e-06 -4e-06
                      CHANNELS 3 Zrotation Yrotation Xrotation
                      JOINT RightHandRing3
                      {
                        OFFSET -4.33881 0.0 -4e-06
                        CHANNELS 3 Zrotation Yrotation Xrotation
                        JOINT RightHandRing4
                        {
                          OFFSET -2.654903 -4e-06 -4e-06
                          CHANNELS 3 Zrotation Yrotation Xrotation
                          JOINT RightHandRingEnd
                          {
                            OFFSET -1.935122 0.0 4e-06
                            CHANNELS 3 Zrotation Yrotation Xrotation
                          }
                        }
                      }
                    }
                  }
                  JOINT RightHandPinky1
                  {
                    OFFSET -2.866241 1.503904 -0.60527
                    CHANNELS 3 Zrotation Yrotation Xrotation
                    JOINT RightHandPinky2
                    {
                      OFFSET -5.553177 -2e-06 0.0
                      CHANNELS 3 Zrotation Yrotation Xrotation
                      JOINT RightHandPinky3
                      {
                        OFFSET -3.062664 -1e-06 -4e-06
                        CHANNELS 3 Zrotation Yrotation Xrotation
                        JOINT RightHandPinky4
                        {
                          OFFSET -1.546529 2e-06 4e-06
                          CHANNELS 3 Zrotation Yrotation Xrotation
                          JOINT RightHandPinkyEnd
                          {
                            OFFSET -1.952341 0.0 -4e-06
                            CHANNELS 3 Zrotation Yrotation Xrotation
                          }
                        }
                      }
                    }
                  }
                }
              }
            }
          }
        }
      }
    }
    JOINT LeftLeg
    {
      OFFSET -8.443107 2.567604 10.043214
      CHANNELS 3 Zrotation Yrotation Xrotation
      JOINT LeftShin
      {
        OFFSET 43.229198 1e-06 -1e-06
        CHANNELS 3 Zrotation Yrotation Xrotation
        JOINT LeftFoot
        {
          OFFSET 42.298611 1e-06 1e-06
          CHANNELS 3 Zrotation Yrotation Xrotation
          JOINT LeftToeBase
          {
            OFFSET 14.165858 1e-06 0.0
            CHANNELS 3 Zrotation Yrotation Xrotation
            JOINT LeftToeEnd
            {
              OFFSET 6.7141 -0.234461 0.0
              CHANNELS 3 Zrotation Yrotation Xrotation
            }
          }
        }
      }
    }
    JOINT RightLeg
    {
      OFFSET -8.303923 2.592729 -10.047278
      CHANNELS 3 Zrotation Yrotation Xrotation
      JOINT RightShin
      {
        OFFSET -43.369682 0.0 1e-06
        CHANNELS 3 Zrotation Yrotation Xrotation
        JOINT RightFoot
        {
          OFFSET -42.260784 4e-06 2e-06
          CHANNELS 3 Zrotation Yrotation Xrotation
          JOINT RightToeBase
          {
            OFFSET -14.222245 -2e-06 -1e-06
            CHANNELS 3 Zrotation Yrotation Xrotation
            JOINT RightToeEnd
            {
              OFFSET -6.660062 0.232574 -2e-06
              CHANNELS 3 Zrotation Yrotation Xrotation
            }
          }
        }
      }
    }
  }
}
MOTION
Frames: 4
Frame Time: 0.03333333333333333
0.0 0.0 0.0 0.0 -0.0 0.0 -0.983505 47.983135 1.116359 89.706795 -53.624908 89.939377 11.345265 0.088625 -0.844213 -4.337035 -0.531684 -1.336047 24.288969 2.44604 -2.543376 19.223316 -2.031993 2.479498 -2.899734 -0.57429 0.824063 -35.573837 -0.200494 1.031482 5e-06 0.0 -0.0 -0.105427 0.052604 -0.030521 0.095906 0.00444 0.026646 0.081417 0.101413 -0.08267 -31.794657 -70.425102 36.420982 81.49279 -6.144939 -24.617462 12.500783 -1.269388 0.145924 0.024399 68.016281 -1.168841 17.636627 -26.322725 52.411194 -19.46666 -14.395596 29.410389 -1e-06 -8.774821 -2e-06 16.450014 -17.710836 6.363097 -0.609776 -1.795653 -3.889327 -4.807088 -11.046808 -2.93785 4e-06 -20.976011 -0.0 -5.019969 -25.033546 -4.031882 6e-06 -1e-06 2e-06 -10.634534 -5.686971 -3.565588 10.573274 -17.922945 -3.113899 2e-06 -13.821206 1e-06 -0.501777 -31.181498 -4.027015 -10.904329 -59.976528 7.794032 -13.982713 -7.150194 -2.875042 13.772728 -8.401489 -3.218242 0.347733 -34.21154 0.771655 -0.963029 -17.733366 2.62102 0.0 -0.0 -0.0 -17.346416 -20.095209 -4.201783 21.757555 -1.638374 3.866428 1e-06 -6.338824 1e-06 -1.697589 -22.591736 -6.194005 -0.0 -4e-06 -2e-06 169.15741 -74.572227 16.184134 91.230568 -2.12451 -18.168642 9.036659 -0.738361 0.059302 -34.673111 68.52697 -41.555885 22.182129 -20.375891 49.933308 -16.701811 -16.743528 28.476528 -3e-06 -12.690601 -2e-06 16.504698 -17.884365 2.634263 -0.10592 -1.513857 -4.275881 -5.03904 -5.612868 -2.953556 5e-06 -11.020523 -3e-06 -6.111298 -15.895332 -3.840472 -0.0 -0.0 2e-06 -10.283369 -5.680287 -4.341839 11.028296 -11.302403 -2.372633 -1.38427 -14.238582 -6.32012 -0.625435 -26.924179 -3.827601 -4.025937 -48.848415 -4.395783 -13.708526 -7.363474 -3.720941 18.141151 -14.052739 -3.242673 6e-06 -18.787266 -2e-06 -0.429711 -8.45604 2.555505 0.0 0.0 0.0 -15.923536 -20.094481 -5.473586 30.419214 -7.190827 1.735931 4e-06 -8.162925 -0.0 -1.861902 -22.861464 -6.16794 -0.0 -3e-06 -2e-06 111.841866 -9.253326 7.999815 126.524925 -0.420015 0.293367 -94.715706 14.42989 9.46165 -45.47121 1.826785 1.138781 -0.999999 1e-06 0.0 -59.476864 -6.666659 4.810544 120.239075 -0.229418 0.209825 -97.399361 12.941413 13.209056 -49.270412 1.117409 1.284515 -1.000004 1e-06 0.0 
0.0 0.0 0.0 0.0 -0.0 0.0 -0.913097 47.979 1.312223 89.359337 -53.698021 90.105652 11.314704 0.165644 -0.858242 -4.403064 -0.495263 -1.276409 24.276834 2.435175 -2.393731 19.176947 -2.064455 2.349153 -2.882016 -0.56175 0.762659 -35.440536 -0.148197 0.984407 5e-06 -0.0 -0.0 -0.110904 0.042514 -0.032386 0.131331 -0.016928 0.031445 0.111838 0.10437 -0.093768 -31.847229 -70.569412 36.767693 81.564301 -5.941274 -24.812775 12.28851 -1.283796 0.127958 1.362111 68.060501 0.070384 17.636627 -26.322733 52.411182 -19.46666 -14.395596 29.410385 -1e-06 -8.774821 -2e-06 16.409342 -17.740412 6.390842 -0.609777 -1.795653 -3.889326 -4.807088 -11.046813 -2.937849 4e-06 -20.976019 1e-06 -5.019972 -25.033556 -4.031877 6e-06 -0.0 0.0 -10.634531 -5.686968 -3.565587 10.573271 -17.922955 -3.1139 2e-06 -13.821211 2e-06 -0.501779 -31.181505 -4.027012 -10.737646 -60.049431 7.701049 -13.982712 -7.150197 -2.87504 13.772728 -8.401489 -3.218242 0.347733 -34.211555 0.771656 -0.963029 -17.73337 2.621019 0.0 -0.0 0.0 -17.346418 -20.095215 -4.201778 21.757557 -1.638375 3.866426 1e-06 -6.338825 1e-06 -1.69759 -22.591745 -6.194004 -0.0 -3e-06 -1e-06 169.08345 -74.537842 16.423803 91.327431 -2.115716 -18.478672 8.888665 -0.725819 0.065251 -33.848995 68.547646 -41.177792 22.182102 -20.375898 49.933315 -16.701817 -16.74353 28.476534 -3e-06 -12.6906 2e-06 16.474789 -17.870609 2.661864 -0.105919 -1.513858 -4.275882 -5.03904 -5.612871 -2.953555 5e-06 -11.020527 -2e-06 -6.111297 -15.895338 -3.840468 0.0 1e-06 1e-06 -10.283369 -5.68029 -4.341837 11.028296 -11.302404 -2.372633 -1.384269 -14.238586 -6.320118 -0.625435 -26.924189 -3.827605 -4.012199 -48.943195 -4.312755 -13.708524 -7.363479 -3.720937 18.141153 -14.052739 -3.242677 4e-06 -18.787271 -2e-06 -0.429712 -8.456045 2.555502 1e-06 0.0 0.0 -15.923534 -20.094484 -5.473581 30.419214 -7.190823 1.735923 2e-06 -8.162927 -1e-06 -1.861902 -22.861471 -6.167942 0.0 -3e-06 -1e-06 111.983597 -9.437559 8.001855 126.314651 -0.445145 0.290118 -94.231239 14.419875 9.687772 -45.41785 1.822378 1.088429 -1.0 1e-06 -0.0 -59.301964 -6.460094 4.643195 119.905556 -0.273278 0.182062 -96.935371 12.950441 13.36236 -48.987259 1.110078 1.281222 -1.000003 1e-06 1e-06 
0.0 0.0 0.0 0.0 -0.0 0.0 -0.84708 47.980026 1.611762 89.144829 -53.741768 90.211746 11.245638 0.20311 -0.842961 -4.456717 -0.453841 -1.216342 24.295918 2.443019 -2.290351 19.147535 -2.073426 2.23591 -2.874149 -0.61851 0.674325 -35.382236 -0.17427 0.92486 6e-06 0.0 0.0 -0.107984 0.024471 -0.027804 0.124794 -0.041257 0.032987 0.105001 0.0936 -0.089346 -31.49972 -70.635956 36.654118 81.553925 -5.841558 -24.688627 12.25888 -1.287979 0.122962 1.551377 67.986626 0.174756 17.636641 -26.322729 52.411179 -19.466658 -14.395594 29.410378 -1e-06 -8.774821 -3e-06 16.356808 -17.737656 6.402251 -0.609776 -1.795653 -3.889327 -4.807089 -11.046808 -2.93785 3e-06 -20.976019 1e-06 -5.01997 -25.033556 -4.031881 5e-06 -0.0 0.0 -10.634533 -5.686971 -3.565588 10.57327 -17.922951 -3.113898 3e-06 -13.821206 1e-06 -0.501779 -31.181498 -4.027014 -10.621356 -60.071304 7.640724 -13.982714 -7.150198 -2.875042 13.772729 -8.401491 -3.218239 0.347732 -34.211555 0.771657 -0.963029 -17.73337 2.62102 0.0 0.0 -0.0 -17.346416 -20.095217 -4.201782 21.757555 -1.638375 3.86643 1e-06 -6.338825 0.0 -1.69759 -22.591743 -6.194005 0.0 -5e-06 -2e-06 169.511917 -74.49012 16.146072 91.21228 -2.162497 -18.824141 8.810479 -0.768132 0.066844 -33.197021 68.703552 -40.663158 22.182117 -20.375898 49.933319 -16.701807 -16.743528 28.476528 -2e-06 -12.690598 -1e-06 16.45166 -17.803665 2.673872 -0.105923 -1.513855 -4.27588 -5.039041 -5.612872 -2.953557 3e-06 -11.020525 -2e-06 -6.111301 -15.895334 -3.840473 0.0 1e-06 2e-06 -10.283371 -5.68029 -4.341839 11.028291 -11.302401 -2.372631 -1.384271 -14.238581 -6.320118 -0.625439 -26.924179 -3.827601 -3.978964 -48.942646 -4.234529 -13.708527 -7.363479 -3.720938 18.14115 -14.052737 -3.242671 4e-06 -18.78727 -1e-06 -0.429711 -8.45604 2.555504 0.0 -1e-06 -1e-06 -15.923539 -20.094486 -5.473584 30.41921 -7.190823 1.735929 1e-06 -8.162929 -0.0 -1.861906 -22.861473 -6.167942 -0.0 -2e-06 -1e-06 112.346802 -9.578317 7.897792 125.999359 -0.462226 0.294858 -94.074989 14.285311 9.847416 -45.470699 1.820706 1.076644 -0.999998 1e-06 -0.0 -58.950603 -6.297683 4.56132 119.457275 -0.298423 0.184682 -96.535248 12.919126 13.444354 -48.919548 1.100776 1.280764 -1.000002 1e-06 0.0 
0.0 0.0 0.0 0.0 -0.0 0.0 -0.803567 47.988045 1.832255 88.954216 -53.815624 90.328308 11.169385 0.229263 -0.820974 -4.505975 -0.430238 -1.172671 24.289925 2.517157 -2.217741 19.096781 -2.127904 2.143063 -2.862241 -0.694718 0.593602 -35.419205 -0.226644 0.866162 7e-06 0.0 -0.0 -0.104299 0.007772 -0.022164 0.105075 -0.061009 0.032535 0.086146 0.079991 -0.079514 -31.231754 -70.68573 36.562584 81.518951 -5.818002 -24.586073 12.348118 -1.29363 0.118349 1.597992 68.020111 0.378779 17.636627 -26.322733 52.41119 -19.46666 -14.3956 29.410389 -1e-06 -8.774822 -2e-06 16.312326 -17.721603 6.402634 -0.609776 -1.795654 -3.889328 -4.807088 -11.046813 -2.93785 5e-06 -20.976019 -0.0 -5.01997 -25.03356 -4.031879 6e-06 0.0 0.0 -10.634535 -5.68697 -3.565587 10.573275 -17.922956 -3.113901 2e-06 -13.821213 1e-06 -0.501778 -31.181505 -4.027015 -10.598632 -60.074867 7.601183 -13.982715 -7.150198 -2.875042 13.772731 -8.401493 -3.218241 0.347733 -34.211555 0.771655 -0.963028 -17.73337 2.62102 -0.0 -0.0 -0.0 -17.34642 -20.095221 -4.201779 21.757561 -1.638374 3.866428 1e-06 -6.338825 1e-06 -1.697589 -22.591749 -6.194005 -0.0 -4e-06 -2e-06 169.982468 -74.394882 15.715856 91.053452 -2.342489 -19.133715 8.843725 -0.788186 0.066871 -32.735565 68.837051 -40.286526 22.182117 -20.375898 49.933319 -16.701807 -16.74353 28.476522 -4e-06 -12.690599 -1e-06 16.451307 -17.749084 2.671847 -0.105919 -1.513856 -4.275881 -5.039038 -5.612869 -2.953556 3e-06 -11.020526 -1e-06 -6.111298 -15.895334 -3.840469 -0.0 -0.0 1e-06 -10.283372 -5.68029 -4.341839 11.028295 -11.302403 -2.372631 -1.384271 -14.238585 -6.320117 -0.62544 -26.924187 -3.827602 -3.940917 -48.947132 -4.171812 -13.708527 -7.363475 -3.720939 18.141148 -14.052742 -3.242672 4e-06 -18.78727 -0.0 -0.429711 -8.456042 2.555504 0.0 0.0 -1e-06 -15.923536 -20.094482 -5.473582 30.41921 -7.190823 1.735928 1e-06 -8.162927 -0.0 -1.861906 -22.861471 -6.167939 1e-06 -2e-06 -1e-06 112.554253 -9.659228 7.873488 125.770752 -0.469803 0.295154 -94.009186 14.181457 9.974296 -45.740929 1.823059 1.080045 -0.999999 0.0 -0.0 -58.73415 -6.120805 4.536747 119.122574 -0.287246 0.181718 -96.254471 12.792896 13.466286 -49.000645 1.094173 1.282789 -1.000005 -1e-06 1e-06 
